<svg xmlns="http://www.w3.org/2000/svg" viewBox="0 0 200 280">
  <defs>
    <linearGradient id="barrel-body" x1="0" y1="0" x2="0" y2="1">
      <stop offset="0%" stop-color="#1faf7a" />
      <stop offset="100%" stop-color="#0a5a3a" />
    </linearGradient>
    <linearGradient id="barrel-gloss" x1="0" y1="0" x2="1" y2="0">
      <stop offset="0%" stop-color="#8fe6c1" stop-opacity="0.85" />
      <stop offset="100%" stop-color="#065138" stop-opacity="0" />
    </linearGradient>
  </defs>
  <ellipse cx="100" cy="262" rx="68" ry="18" fill="#000" opacity="0.15" />
  <path d="M42 46 C62 30 140 30 160 46 L164 232 C142 246 62 246 40 232 Z" fill="url(#barrel-body)" stroke="#063326" stroke-width="12" />
  <ellipse cx="102" cy="46" rx="62" ry="18" fill="#0c6a46" stroke="#063326" stroke-width="8" />
  <path d="M38 92 C80 108 124 110 168 92" stroke="#063326" stroke-width="10" />
  <path d="M36 150 C82 168 122 170 170 150" stroke="#063326" stroke-width="10" />
  <path d="M46 64 C62 54 142 54 156 64 L158 220 C142 228 64 228 48 220 Z" fill="url(#barrel-gloss)" />
  <text x="102" y="140" font-family="'Baloo Bhaijaan 2', sans-serif" font-size="44" font-weight="700" fill="#ffffff" text-anchor="middle">أرامكو</text>
  <text x="102" y="184" font-family="'Tajawal', sans-serif" font-size="20" fill="#d4f6ea" text-anchor="middle">ARAMCO</text>
</svg>
