<svg xmlns="http://www.w3.org/2000/svg" viewBox="0 0 220 360">
  <defs>
    <linearGradient id="cactus-base" x1="0" y1="0" x2="1" y2="1">
      <stop offset="0%" stop-color="#7ad77f" />
      <stop offset="100%" stop-color="#1e7a4d" />
    </linearGradient>
    <linearGradient id="cactus-highlight" x1="0" y1="0" x2="1" y2="0">
      <stop offset="0%" stop-color="#aef0a8" />
      <stop offset="100%" stop-color="#3ca572" />
    </linearGradient>
  </defs>
  <ellipse cx="110" cy="340" rx="90" ry="20" fill="#000" opacity="0.12" />
  <path d="M96 70 C72 160 64 264 80 340 L140 340 C156 262 152 158 138 70 C132 36 104 36 96 70 Z" fill="url(#cactus-base)" stroke="#145237" stroke-width="12" />
  <path d="M160 120 C188 118 208 140 208 188 C208 238 188 256 168 248" stroke="#145237" stroke-width="28" stroke-linecap="round" />
  <path d="M160 108 C188 102 204 134 204 172 C204 212 188 230 170 226" stroke="url(#cactus-highlight)" stroke-width="14" stroke-linecap="round" />
  <path d="M60 160 C36 160 16 182 16 222 C16 262 38 284 58 276" stroke="#145237" stroke-width="30" stroke-linecap="round" />
  <path d="M68 148 C40 144 26 180 26 214 C26 252 42 270 60 264" stroke="url(#cactus-highlight)" stroke-width="14" stroke-linecap="round" />
  <path d="M96 70 C88 102 82 156 80 214 C76 254 82 292 92 320 L138 320 C150 294 154 254 150 210 C146 150 134 98 126 70 C122 56 100 56 96 70 Z" fill="url(#cactus-highlight)" opacity="0.4" />
  <g fill="#ffffff" opacity="0.25">
    <circle cx="112" cy="160" r="6" />
    <circle cx="98" cy="210" r="6" />
    <circle cx="128" cy="236" r="5" />
    <circle cx="114" cy="280" r="5" />
    <circle cx="78" cy="220" r="4" />
    <circle cx="152" cy="200" r="4" />
  </g>
  <path d="M110 324 C112 336 98 342 82 340" stroke="#0d3a26" stroke-width="12" stroke-linecap="round" />
</svg>
