<svg xmlns="http://www.w3.org/2000/svg" viewBox="0 0 420 260">
  <defs>
    <linearGradient id="camel-coat" x1="0" y1="0" x2="1" y2="1">
      <stop offset="0%" stop-color="#f6d199" />
      <stop offset="100%" stop-color="#d08a3c" />
    </linearGradient>
    <linearGradient id="camel-shadow" x1="0" y1="0" x2="0" y2="1">
      <stop offset="0%" stop-color="#b96a24" />
      <stop offset="100%" stop-color="#7a4616" />
    </linearGradient>
  </defs>
  <ellipse cx="212" cy="236" rx="160" ry="22" fill="#000" opacity="0.16" />
  <path d="M36 220 C42 140 78 88 132 74 C146 46 186 28 226 40 C252 28 292 34 320 62 C360 56 384 100 368 140 C388 142 396 160 394 182 L370 196 C366 216 350 230 324 230 L120 226 C74 226 36 238 36 220 Z" fill="url(#camel-coat)" stroke="#824a18" stroke-width="12" stroke-linejoin="round" />
  <path d="M132 74 C156 106 200 116 244 116 C272 114 300 104 316 84 L328 128 C306 146 270 162 224 160 C170 156 136 126 132 74 Z" fill="#fbe0b4" opacity="0.5" />
  <path d="M88 148 L82 216" stroke="#824a18" stroke-width="18" stroke-linecap="round" />
  <path d="M164 172 L158 226" stroke="#824a18" stroke-width="18" stroke-linecap="round" />
  <path d="M274 178 L268 230" stroke="#824a18" stroke-width="18" stroke-linecap="round" />
  <path d="M332 164 L326 226" stroke="#824a18" stroke-width="18" stroke-linecap="round" />
  <path d="M346 96 C362 86 380 94 392 118" stroke="#824a18" stroke-width="12" stroke-linecap="round" />
  <circle cx="318" cy="112" r="12" fill="#3a2210" />
  <circle cx="318" cy="112" r="4" fill="#fdf5da" />
  <path d="M334 136 C346 130 358 132 364 140" stroke="#3a2210" stroke-width="10" stroke-linecap="round" />
  <path d="M112 76 C150 68 182 76 210 88 L198 106 C170 104 142 98 118 88 Z" fill="#fff2d6" opacity="0.4" />
  <path d="M60 220 L72 134" stroke="#834714" stroke-width="16" stroke-linecap="round" />
  <path d="M342 228 L372 184" stroke="#834714" stroke-width="16" stroke-linecap="round" />
  <path d="M248 52 C270 32 302 40 322 58" stroke="#fce8c9" stroke-width="10" stroke-linecap="round" opacity="0.6" />
</svg>
