<svg xmlns="http://www.w3.org/2000/svg" viewBox="0 0 220 320">
  <defs>
    <linearGradient id="palm-trunk" x1="0" y1="0" x2="0" y2="1">
      <stop offset="0%" stop-color="#a9692d" />
      <stop offset="60%" stop-color="#714018" />
      <stop offset="100%" stop-color="#4d270e" />
    </linearGradient>
    <linearGradient id="palm-frond" x1="0" y1="0" x2="1" y2="0.8">
      <stop offset="0%" stop-color="#52c692" />
      <stop offset="100%" stop-color="#1c7850" />
    </linearGradient>
    <linearGradient id="palm-frond-dark" x1="0" y1="0" x2="1" y2="0.7">
      <stop offset="0%" stop-color="#2c8c5e" />
      <stop offset="100%" stop-color="#0e4f33" />
    </linearGradient>
  </defs>
  <ellipse cx="108" cy="304" rx="68" ry="16" fill="#000" opacity="0.15" />
  <path d="M94 96 C80 150 76 212 84 292 L112 300 C120 220 136 164 154 124 Z" fill="url(#palm-trunk)" stroke="#3c1f0b" stroke-width="12" stroke-linejoin="round" />
  <path d="M112 112 C170 96 206 62 216 22 C182 26 150 48 126 80 Z" fill="url(#palm-frond)" stroke="#145437" stroke-width="8" stroke-linejoin="round" />
  <path d="M110 112 C52 100 22 68 8 26 C44 32 80 54 108 84 Z" fill="url(#palm-frond)" stroke="#145437" stroke-width="8" stroke-linejoin="round" />
  <path d="M110 112 C166 118 204 148 214 194 C176 172 142 146 110 112 Z" fill="url(#palm-frond-dark)" stroke="#0c3f2c" stroke-width="8" stroke-linejoin="round" />
  <path d="M110 112 C58 120 28 148 16 194 C50 172 82 144 110 112 Z" fill="url(#palm-frond-dark)" stroke="#0c3f2c" stroke-width="8" stroke-linejoin="round" />
  <path d="M112 112 C160 88 186 80 206 92 C186 104 152 120 112 112 Z" fill="#71d2a8" opacity="0.5" />
  <path d="M110 112 C62 90 34 82 16 94 C36 108 70 120 110 112 Z" fill="#71d2a8" opacity="0.45" />
  <circle cx="108" cy="118" r="26" fill="#3c1f0b" />
  <path d="M104 130 C114 162 126 218 128 296" stroke="#2a1708" stroke-width="10" stroke-linecap="round" opacity="0.5" />
</svg>
